<?xml version="1.0" encoding="UTF-8" standalone="no"?>
<svg width="102px" height="118px" viewBox="0 0 102 118" version="1.1" xmlns="http://www.w3.org/2000/svg" xmlns:xlink="http://www.w3.org/1999/xlink">
    <!-- Generator: Sketch 39.1 (31720) - http://www.bohemiancoding.com/sketch -->
    <title>bitbucket</title>
    <desc>Created with Sketch.</desc>
    <defs></defs>
    <g id="Page-1" stroke="none" stroke-width="1" fill="none" fill-rule="evenodd">
        <g id="bitbucket" fill="#205081">
            <g id="Group">
                <path d="M51,1.84296963e-06 L51,1.84296963e-06 C23.0025467,1.84296963e-06 0.00463761531,7.52872628 0.00463761531,17.0651127 C0.00463761531,19.5746891 6.00409174,55.210666 8.50386507,69.264286 C9.50377254,75.7891864 26.0022737,84.8236584 51,84.8236584 L51,84.8236584 C75.9977241,84.8236584 91.9962667,75.7891864 93.4961373,69.264286 C95.9959059,55.210666 101.99536,19.5746891 101.99536,17.0651127 C101.495406,7.52872628 78.9974509,1.84296963e-06 51,1.84296963e-06 L51,1.84296963e-06 L51,1.84296963e-06 Z M51,73.27961 C42.0008189,73.27961 35.0014549,66.2527952 35.0014549,57.2183232 C35.0014549,48.1838512 42.0008189,41.1570428 51,41.1570428 C59.9991767,41.1570428 66.9985426,48.1838512 66.9985426,57.2183232 C66.9985426,65.7508812 59.9991767,73.27961 51,73.27961 L51,73.27961 L51,73.27961 Z M51,22.0842654 C33.0016353,22.0842654 18.5029538,19.0727747 18.5029538,15.0574554 C18.5029538,11.0421313 33.0016353,8.03064064 51,8.03064064 C68.9983578,8.03064064 83.4970438,11.0421313 83.4970438,15.0574554 C83.4970438,19.0727747 68.9983578,22.0842654 51,22.0842654 L51,22.0842654 L51,22.0842654 Z" id="Shape"></path>
                <path d="M87.8985701,82.8159964 C86.8986577,82.8159964 86.3987044,83.3179108 86.3987044,83.3179108 C86.3987044,83.3179108 73.8998423,93.3562164 51.4018868,93.3562164 C28.9039358,93.3562164 16.4050692,83.3179108 16.4050692,83.3179108 C16.4050692,83.3179108 15.4051616,82.8159964 14.9052079,82.8159964 C13.9052958,82.8159964 12.9053884,83.3179108 12.9053884,84.8236584 L12.9053884,85.3255728 C14.9052079,95.8657928 16.4050692,103.394517 16.4050692,104.398346 C17.904935,111.927075 32.9035703,117.950056 50.901933,117.950056 L50.901933,117.950056 C68.9002956,117.950056 83.898931,111.927075 85.3987968,104.398346 C85.3987968,103.394517 86.8986577,95.8657928 88.8984773,85.3255728 L88.8984773,84.8236584 C89.3984311,83.8198252 88.8984773,82.8159964 87.8985701,82.8159964 L87.8985701,82.8159964 L87.8985701,82.8159964 Z" id="Shape"></path>
                <ellipse id="Oval" cx="51" cy="56.716432" rx="7.9992723" ry="8.030642"></ellipse>
            </g>
        </g>
    </g>
</svg>