<?xml version="1.0" encoding="UTF-8" standalone="no"?>
<svg width="57px" height="57px" viewBox="0 0 57 57" version="1.1" xmlns="http://www.w3.org/2000/svg" xmlns:xlink="http://www.w3.org/1999/xlink">
    <!-- Generator: Sketch 3.8.3 (29802) - http://www.bohemiancoding.com/sketch -->
    <title>social-conns</title>
    <desc>Created with Sketch.</desc>
    <defs></defs>
    <g id="V2/Wireframes/Logos" stroke="none" stroke-width="1" fill="none" fill-rule="evenodd">
        <g id="Artboard-4" transform="translate(-43.000000, -71.000000)">
            <g id="Group-3" transform="translate(28.000000, 34.000000)">
                <g id="social-conns" transform="translate(15.000000, 37.000000)">
                    <g id="Group-10" transform="translate(0.636267, 0.000000)">
                        <rect id="Rectangle-path" fill="#000000" x="0" y="-7.10542736e-15" width="55.6505546" height="56.0184921" rx="15.3825226"></rect>
                        <path d="M27.6155605,15.9001584 C20.4143561,15.9001584 14.5751452,21.6843845 14.5751452,28.8211973 C14.5751452,34.5287095 18.3114577,39.3713738 23.4945317,41.0800744 C24.1465932,41.198779 24.3845957,40.7998668 24.3845957,40.4574807 C24.3845957,40.1506252 24.3731846,39.3382657 24.366664,38.2602339 C20.7387567,39.0411003 19.9733995,36.5281153 19.9733995,36.5281153 C19.3808386,35.0358286 18.525823,34.6385315 18.525823,34.6385315 C17.3415162,33.8366696 18.6154814,33.8528199 18.6154814,33.8528199 C19.9236798,33.9440691 20.6124198,35.1844113 20.6124198,35.1844113 C21.7763496,37.1587841 23.6648828,36.5886789 24.4082329,36.257598 C24.5264191,35.422628 24.8638609,34.8533303 25.236351,34.5303246 C22.3403828,34.2040887 19.2960706,33.0961789 19.2960706,28.1453077 C19.2960706,26.73458 19.8038635,25.5814493 20.6385023,24.6778406 C20.5040146,24.3507973 20.0565374,23.0377788 20.7656543,21.2588244 C20.7656543,21.2588244 21.8611176,20.9115932 24.3519926,22.5831481 C25.3928458,22.2964805 26.507871,22.1535504 27.6171906,22.1478978 C28.7248801,22.1535504 29.8407204,22.2964805 30.8823887,22.5831481 C33.3716335,20.9115932 34.4646516,21.2588244 34.4646516,21.2588244 C35.1762138,23.0377788 34.7287365,24.3507973 34.5942489,24.6778406 C35.4305177,25.5814493 35.9350503,26.73458 35.9350503,28.1453077 C35.9350503,33.1082916 32.8858477,34.2008587 29.9809136,34.5206344 C30.4487678,34.9195465 30.8660871,35.7076806 30.8660871,36.9132997 C30.8660871,38.6405732 30.8497856,40.0335356 30.8497856,40.4574807 C30.8497856,40.8030969 31.0845277,41.2052391 31.7463702,41.0784593 C36.9245537,39.3665287 40.6576059,34.5270945 40.6576059,28.8211973 C40.6576059,21.6843845 34.818395,15.9001584 27.6155605,15.9001584" id="Github" fill="#FFFFFF"></path>
                    </g>
                    <polygon id="+" fill="#FFFFFF" points="44.0775925 41.8909541 44.0775925 37.4984093 46.114136 37.4984093 46.114136 41.8909541 50.5066808 41.8909541 50.5066808 43.9274976 46.114136 43.9274976 46.114136 48.3200424 44.0775925 48.3200424 44.0775925 43.9274976 39.6850477 43.9274976 39.6850477 41.8909541"></polygon>
                </g>
            </g>
        </g>
    </g>
</svg>