<?xml version="1.0" encoding="UTF-8" standalone="no"?>
<svg width="128px" height="118px" viewBox="0 0 128 118" version="1.1" xmlns="http://www.w3.org/2000/svg" xmlns:xlink="http://www.w3.org/1999/xlink">
    <!-- Generator: Sketch 39.1 (31720) - http://www.bohemiancoding.com/sketch -->
    <title>Gitlab</title>
    <desc>Created with Sketch.</desc>
    <defs></defs>
    <g id="Page-1" stroke="none" stroke-width="1" fill="none" fill-rule="evenodd">
        <g id="Gitlab">
            <polygon id="Fill-4" fill="#E24329" points="64.0374248 117.790155 64.0374248 117.790155 87.5894248 45.4567629 40.4854248 45.4567629 64.0374248 117.790155"></polygon>
            <polygon id="Fill-8" fill="#FC6D26" points="64.0374248 117.790033 40.4854248 45.4566412 7.4778819 45.4566412"></polygon>
            <path d="M7.47794286,45.4568237 L7.47794286,45.4568237 L0.320914286,67.4382773 C-0.331885714,69.4430608 0.383085714,71.6394423 2.09219048,72.8784423 L64.0374857,117.790215 L7.47794286,45.4568237 L7.47794286,45.4568237 Z" id="Fill-12" fill="#FCA326"></path>
            <path d="M7.47794286,45.4568845 L40.4854857,45.4568845 L26.3000381,1.89116289 C25.5704381,-0.350837113 22.392381,-0.350228866 21.662781,1.89116289 L7.47794286,45.4568845 L7.47794286,45.4568845 Z" id="Fill-16" fill="#E24329"></path>
            <polygon id="Fill-18" fill="#FC6D26" points="64.0374248 117.790033 87.5894248 45.4566412 120.596968 45.4566412"></polygon>
            <path d="M120.596968,45.4568237 L120.596968,45.4568237 L127.753996,67.4382773 C128.406796,69.4430608 127.691825,71.6394423 125.98272,72.8784423 L64.0374248,117.790215 L120.596968,45.4568237 L120.596968,45.4568237 Z" id="Fill-20" fill="#FCA326"></path>
            <path d="M120.596968,45.4568845 L87.5894248,45.4568845 L101.774872,1.89116289 C102.504472,-0.350837113 105.68253,-0.350228866 106.41213,1.89116289 L120.596968,45.4568845 L120.596968,45.4568845 Z" id="Fill-22" fill="#E24329"></path>
        </g>
    </g>
</svg>