<?xml version="1.0" standalone="no"?>
<svg version="1.0" xmlns="http://www.w3.org/2000/svg"
     width="300.000000pt" height="300.000000pt" viewBox="0 0 300.000000 300.000000"
     preserveAspectRatio="xMidYMid meet">
    <g transform="translate(0.000000,300.000000) scale(0.100000,-0.100000)"
       fill="#511d54" stroke="none">
        <path d="M1298 2604 c-394 -71 -726 -358 -859 -741 -120 -345 -58 -739 162
-1033 205 -275 504 -433 845 -447 161 -7 264 7 404 53 352 117 611 381 723
739 38 120 50 228 44 378 -11 279 -114 521 -306 720 -172 178 -382 291 -617
332 -106 18 -292 18 -396 -1z m740 -465 c81 -34 150 -65 153 -68 4 -3 8 -260
10 -570 l4 -565 -125 -53 c-69 -29 -144 -61 -168 -70 l-44 -16 -278 278 c-199
199 -282 275 -291 269 -8 -4 -84 -60 -169 -124 -85 -64 -164 -123 -176 -130
-18 -11 -28 -7 -92 35 l-72 48 2 351 3 351 71 25 72 24 177 -133 c97 -72 182
-134 188 -136 7 -3 138 119 292 270 154 151 284 274 288 275 5 0 74 -28 155
-61z"/>
        <path d="M1690 1640 c-96 -72 -175 -135 -175 -140 0 -5 79 -68 175 -140 l175
-131 3 135 c1 75 1 197 0 272 l-3 135 -175 -131z"/>
        <path d="M940 1500 c0 -144 3 -180 13 -173 97 75 207 167 207 173 0 6 -110 98
-207 173 -10 7 -13 -29 -13 -173z"/>
    </g>
</svg>
